<mxfile host="app.diagrams.net" modified="2023-11-21T21:51:00.631Z" agent="Mozilla/5.0 (Windows NT 10.0; Win64; x64) AppleWebKit/537.36 (KHTML, like Gecko) Chrome/116.0.0.0 Safari/537.36" etag="pdQNKFkI_nBQgpf5VWRU" version="22.1.3" type="device">
  <diagram name="Strona-1" id="mOGhw_kaDy-jFeSj4dUU">
    <mxGraphModel dx="1195" dy="613" grid="1" gridSize="10" guides="1" tooltips="1" connect="1" arrows="1" fold="1" page="1" pageScale="1" pageWidth="827" pageHeight="1169" background="#ffffff" math="0" shadow="0">
      <root>
        <mxCell id="0" />
        <mxCell id="1" parent="0" />
        <mxCell id="FnCTYT4J3TpVENLpEvIC-10" value="creates" style="edgeStyle=orthogonalEdgeStyle;rounded=0;orthogonalLoop=1;jettySize=auto;html=1;entryX=0.5;entryY=0;entryDx=0;entryDy=0;" edge="1" parent="1" source="FnCTYT4J3TpVENLpEvIC-2" target="FnCTYT4J3TpVENLpEvIC-5">
          <mxGeometry x="-0.3846" y="-10" relative="1" as="geometry">
            <mxPoint x="160" y="340" as="targetPoint" />
            <mxPoint as="offset" />
          </mxGeometry>
        </mxCell>
        <mxCell id="FnCTYT4J3TpVENLpEvIC-11" value="creates" style="edgeStyle=orthogonalEdgeStyle;rounded=0;orthogonalLoop=1;jettySize=auto;html=1;entryX=0.5;entryY=0;entryDx=0;entryDy=0;" edge="1" parent="1" source="FnCTYT4J3TpVENLpEvIC-2" target="FnCTYT4J3TpVENLpEvIC-4">
          <mxGeometry y="-10" relative="1" as="geometry">
            <mxPoint as="offset" />
          </mxGeometry>
        </mxCell>
        <mxCell id="FnCTYT4J3TpVENLpEvIC-12" value="creates" style="edgeStyle=orthogonalEdgeStyle;rounded=0;orthogonalLoop=1;jettySize=auto;html=1;exitX=0.5;exitY=1;exitDx=0;exitDy=0;entryX=0.5;entryY=0;entryDx=0;entryDy=0;" edge="1" parent="1" source="FnCTYT4J3TpVENLpEvIC-2" target="FnCTYT4J3TpVENLpEvIC-3">
          <mxGeometry y="10" relative="1" as="geometry">
            <mxPoint x="530" y="350" as="targetPoint" />
            <mxPoint as="offset" />
          </mxGeometry>
        </mxCell>
        <mxCell id="FnCTYT4J3TpVENLpEvIC-13" value="creates" style="edgeStyle=orthogonalEdgeStyle;rounded=0;orthogonalLoop=1;jettySize=auto;html=1;entryX=0.5;entryY=0;entryDx=0;entryDy=0;" edge="1" parent="1" source="FnCTYT4J3TpVENLpEvIC-2" target="FnCTYT4J3TpVENLpEvIC-6">
          <mxGeometry x="-0.3846" y="10" relative="1" as="geometry">
            <mxPoint as="offset" />
          </mxGeometry>
        </mxCell>
        <mxCell id="FnCTYT4J3TpVENLpEvIC-2" value="Menu" style="rounded=0;whiteSpace=wrap;html=1;" vertex="1" parent="1">
          <mxGeometry x="354" y="180" width="120" height="60" as="geometry" />
        </mxCell>
        <mxCell id="FnCTYT4J3TpVENLpEvIC-3" value="Achievements" style="rounded=0;whiteSpace=wrap;html=1;" vertex="1" parent="1">
          <mxGeometry x="474" y="360" width="120" height="60" as="geometry" />
        </mxCell>
        <mxCell id="FnCTYT4J3TpVENLpEvIC-4" value="Credits" style="rounded=0;whiteSpace=wrap;html=1;" vertex="1" parent="1">
          <mxGeometry x="234" y="360" width="120" height="60" as="geometry" />
        </mxCell>
        <mxCell id="FnCTYT4J3TpVENLpEvIC-29" value="creates" style="edgeStyle=orthogonalEdgeStyle;rounded=0;orthogonalLoop=1;jettySize=auto;html=1;exitX=0.5;exitY=1;exitDx=0;exitDy=0;entryX=0.5;entryY=0;entryDx=0;entryDy=0;" edge="1" parent="1" source="FnCTYT4J3TpVENLpEvIC-5" target="FnCTYT4J3TpVENLpEvIC-8">
          <mxGeometry x="0.5" relative="1" as="geometry">
            <mxPoint as="offset" />
          </mxGeometry>
        </mxCell>
        <mxCell id="FnCTYT4J3TpVENLpEvIC-30" value="creates" style="edgeStyle=orthogonalEdgeStyle;rounded=0;orthogonalLoop=1;jettySize=auto;html=1;exitX=0.5;exitY=1;exitDx=0;exitDy=0;entryX=0.5;entryY=0;entryDx=0;entryDy=0;" edge="1" parent="1" source="FnCTYT4J3TpVENLpEvIC-5" target="FnCTYT4J3TpVENLpEvIC-7">
          <mxGeometry x="0.7857" relative="1" as="geometry">
            <Array as="points">
              <mxPoint x="100" y="470" />
              <mxPoint x="294" y="470" />
            </Array>
            <mxPoint as="offset" />
          </mxGeometry>
        </mxCell>
        <mxCell id="FnCTYT4J3TpVENLpEvIC-5" value="Game" style="rounded=0;whiteSpace=wrap;html=1;" vertex="1" parent="1">
          <mxGeometry x="40" y="360" width="120" height="60" as="geometry" />
        </mxCell>
        <mxCell id="FnCTYT4J3TpVENLpEvIC-6" value="SnowBackground" style="rounded=0;whiteSpace=wrap;html=1;" vertex="1" parent="1">
          <mxGeometry x="660" y="360" width="120" height="60" as="geometry" />
        </mxCell>
        <mxCell id="FnCTYT4J3TpVENLpEvIC-7" value="Goblin" style="rounded=0;whiteSpace=wrap;html=1;" vertex="1" parent="1">
          <mxGeometry x="234" y="540" width="120" height="60" as="geometry" />
        </mxCell>
        <mxCell id="FnCTYT4J3TpVENLpEvIC-8" value="Hero" style="rounded=0;whiteSpace=wrap;html=1;" vertex="1" parent="1">
          <mxGeometry x="40" y="540" width="120" height="60" as="geometry" />
        </mxCell>
        <UserObject label="Created with: app.diagrams.net" link="app.diagrams.net" id="FnCTYT4J3TpVENLpEvIC-16">
          <mxCell style="text;html=1;strokeColor=none;fillColor=none;align=center;verticalAlign=middle;whiteSpace=wrap;rounded=0;fontStyle=1" vertex="1" parent="1">
            <mxGeometry x="637" width="190" height="30" as="geometry" />
          </mxCell>
        </UserObject>
        <mxCell id="FnCTYT4J3TpVENLpEvIC-33" value="Goblin Slayer - program diagram" style="text;html=1;strokeColor=none;fillColor=none;align=center;verticalAlign=middle;whiteSpace=wrap;rounded=0;fontSize=32;fontStyle=1" vertex="1" parent="1">
          <mxGeometry x="124" y="70" width="580" height="50" as="geometry" />
        </mxCell>
        <mxCell id="FnCTYT4J3TpVENLpEvIC-39" value="&amp;nbsp;" style="text;html=1;strokeColor=none;fillColor=none;align=center;verticalAlign=middle;whiteSpace=wrap;rounded=0;" vertex="1" parent="1">
          <mxGeometry width="60" height="30" as="geometry" />
        </mxCell>
        <mxCell id="FnCTYT4J3TpVENLpEvIC-40" value="&amp;nbsp;" style="text;html=1;strokeColor=none;fillColor=none;align=center;verticalAlign=middle;whiteSpace=wrap;rounded=0;" vertex="1" parent="1">
          <mxGeometry y="660" width="60" height="30" as="geometry" />
        </mxCell>
      </root>
    </mxGraphModel>
  </diagram>
</mxfile>
